/* XPM */
static char *ce23776288bb4925bb4597f8e1d7ff6a[] = {
/* columns rows colors chars-per-pixel */
"32 32 35 1 ",
"  c black",
". c #020100",
"X c #110501",
"o c #210902",
"O c #300C03",
"+ c #3E0F04",
"@ c #3F1004",
"# c #401004",
"$ c #4F1404",
"% c #4F1405",
"& c #5E1805",
"* c #6D1B06",
"= c #6E1B07",
"- c #7D1F07",
"; c #7D1F08",
": c #7E1F08",
"> c #8C2308",
", c #8D2308",
"< c #9B2709",
"1 c #9C2609",
"2 c #9C2709",
"3 c #AA2A0A",
"4 c #AC2A0A",
"5 c #BA2E0B",
"6 c #BB2E0B",
"7 c #C9320B",
"8 c #CA320C",
"9 c #CB320C",
"0 c #D8360C",
"q c #DA360D",
"w c #E8390D",
"e c #EA390E",
"r c #F73D0E",
"t c #F93D0F",
"y c None",
/* pixels */
"yyyyyyyyyyyyyyyyyyyyyyyyyyyyyyyy",
"yyyyyyyyyyyyyyyrryyyyyyyyyyyyyyy",
"yyyyyyyyyyyrrrr557rrrryyyyyyyyyy",
"yyyyyyyyyrr2&X.....O*0rryyyyyyyy",
"yyyyyyyrt2o...........@0ryyyyyyy",
"yyyyyyr0O...............;rryyyyy",
"yyyyyr7X.................&rryyyy",
"yyyyr7X...................&ryyyy",
"yyyrwo.....................-ryyy",
"yyyr&.......................7ryy",
"yyr5........................@ryy",
"yyr&.........................7ry",
"yyw..........................&ry",
"yr3...OO.....o#X...O@+###O...ory",
"yr-...2to...Xet,...t1;;;2tO...wy",
"yr@...Xw6...2w,t#..t+....6;...5r",
"yr#....%t=.#t=.70X.t96666tO...6t",
"yt#.....4eOq6..Ot;.t2##,t#....5t",
"yr&.....XewtO...;tOt:..Xw2....5r",
"yr:......%t:....X99t:...:to...ry",
"yr5..........................Ory",
"yyro.........................,ry",
"yyr-.........................0yy",
"yyrwX.......................*ryy",
"yyyr>......................Xwryy",
"yyyyr$.....................5ryyy",
"yyyyrwO...................<ryyyy",
"yyyyyrw$................X1ryyyyy",
"yyyyyyrr>X.............O7ryyyyyy",
"yyyyyyyyr0&X.........O<rryyyyyyy",
"yyyyyyyyyrrw3*@@@@$>7rryyyyyyyyy",
"yyyyyyyyyyyyrrrrrrrrryyyyyyyyyyy"
};
