/* XPM */
static char *_d0c3d47b56841caed49013028cc1921[] = {
/* columns rows colors chars-per-pixel */
"64 64 39 1 ",
"  c black",
". c #020100",
"X c #100401",
"o c #110501",
"O c #1F0802",
"+ c #210902",
"@ c #300C03",
"# c #3E0F04",
"$ c #3F1004",
"% c #401004",
"& c #4F1404",
"* c #4F1405",
"= c #5D1706",
"- c #5E1805",
"; c #5F1806",
": c #6D1B06",
"> c #6E1B07",
", c #7D1F07",
"< c #7D1F08",
"1 c #7E1F08",
"2 c #8C2308",
"3 c #8D2308",
"4 c #9B2709",
"5 c #9C2709",
"6 c #AA2A0A",
"7 c #AB2A0A",
"8 c #AC2A0A",
"9 c #BA2E0B",
"0 c #BB2E0B",
"q c #C9320B",
"w c #CB320C",
"e c #DA350D",
"r c #D8360C",
"t c #DA360D",
"y c #E8390D",
"u c #EA390E",
"i c #F73D0E",
"p c #F93D0F",
"a c None",
/* pixels */
"aaaaaaaaaaaaaaaaaaaaaaaaaaaaaaaaaaaaaaaaaaaaaaaaaaaaaaaaaaaaaaaa",
"aaaaaaaaaaaaaaaaaaaaaaaaaaaaaaaaaaaaaaaaaaaaaaaaaaaaaaaaaaaaaaaa",
"aaaaaaaaaaaaaaaaaaaaaaaaaaaiiiiiiiiiiaaaaaaaaaaaaaaaaaaaaaaaaaaa",
"aaaaaaaaaaaaaaaaaaaaaaaiiiiiiiiiiiiiiiiiiaaaaaaaaaaaaaaaaaaaaaaa",
"aaaaaaaaaaaaaaaaaaaaiiipiiy9,,-$$$,,6qiiiiiiaaaaaaaaaaaaaaaaaaaa",
"aaaaaaaaaaaaaaaaaaiiiii8-+............o&2riiiiaaaaaaaaaaaaaaaaaa",
"aaaaaaaaaaaaaaaaiiiir:o...................&9iiiiaaaaaaaaaaaaaaaa",
"aaaaaaaaaaaaaaaiiir-........................+6iiiiaaaaaaaaaaaaaa",
"aaaaaaaaaaaaaiiip,............................$riiiaaaaaaaaaaaaa",
"aaaaaaaaaaaaiiiq@...............................2iiiaaaaaaaaaaaa",
"aaaaaaaaaaaiii4o.................................&yiiaaaaaaaaaaa",
"aaaaaaaaaaiii:....................................@yiiaaaaaaaaaa",
"aaaaaaaaaiii-......................................@yiiaaaaaaaaa",
"aaaaaaaaiii-........................................@yiiaaaaaaaa",
"aaaaaaaaii4..........................................@yiiaaaaaaa",
"aaaaaaaii9............................................-iiaaaaaaa",
"aaaaaaiiy+.............................................6iiaaaaaa",
"aaaaaaii>..............................................oyiiaaaaa",
"aaaaaii9................................................-iiaaaaa",
"aaaaaii$.................................................riiaaaa",
"aaaaii9..................................................-iiaaaa",
"aaaaii&...................................................riiaaa",
"aaaiir....................................................:iiaaa",
"aaaii2....................................................+iiaaa",
"aaaii@.....................................................qiiaa",
"aaaiy......................................................,iiaa",
"aaii6.......208...........*005........009099000000:o.......$iiaa",
"aaii,.......5pp1.........otppp;.......pppppipppppppw.......oiiaa",
"aaii$.......oypp+........2ppppuo......pp=.......o<ip@.......yiaa",
"aaii$........*pp0.......@ppw%pp8......pp#.........pp%.......9iia",
"aaii..........8pp>......wpp@.3pp*.....pp#........Opp%.......9iia",
"aaii..........oypu+....1pp1..oupuo....pp6<<<<<<<<rpp+.......4iia",
"aaii...........*pp8...+upr....*pp8....ppppppppppppp;........1pia",
"aaii............0pp*..0pp%.....9pp%...pp5%%%%%3pp0o.........5pia",
"aaii............+upuo;pp2......+upro..pp1......epp+.........9iia",
"aaii%............>pp5upto.......<pp2..pp1......;pp5.........9iia",
"aaii%.............0pppp%.........wpp%.pp1.......wpp+........yiaa",
"aaii,.............+upp2..........@ppe.pp1.......%pp5.......oiiaa",
"aaii8..............;08o...........>00@00*........308.......$iiaa",
"aaaiy......................................................<iiaa",
"aaaii@.....................................................wiiaa",
"aaaii2....................................................+iiaaa",
"aaaiir....................................................:iiaaa",
"aaaaii&...................................................riiaaa",
"aaaaii9..................................................-iiaaaa",
"aaaaaii$.................................................riiaaaa",
"aaaaaii9................................................-iiaaaaa",
"aaaaaaii>..............................................oyiiaaaaa",
"aaaaaaiiy+.............................................6iiaaaaaa",
"aaaaaaaii9............................................-iiaaaaaaa",
"aaaaaaaaii4..........................................@yiiaaaaaaa",
"aaaaaaaaiii-........................................@yiiaaaaaaaa",
"aaaaaaaaaiii-......................................@yiiaaaaaaaaa",
"aaaaaaaaaaiii:....................................@yiiaaaaaaaaaa",
"aaaaaaaaaaaiii4o.................................&yiiaaaaaaaaaaa",
"aaaaaaaaaaaaiiiq@...............................2iiiaaaaaaaaaaaa",
"aaaaaaaaaaaaaiiii,............................$riiiaaaaaaaaaaaaa",
"aaaaaaaaaaaaaaaiiir-........................+6iiiiaaaaaaaaaaaaaa",
"aaaaaaaaaaaaaaaaiiiir:o...................&9iiiiaaaaaaaaaaaaaaaa",
"aaaaaaaaaaaaaaaaaaiiiii6-+............o&2riiiiaaaaaaaaaaaaaaaaaa",
"aaaaaaaaaaaaaaaaaaaaiiiiiiy9,,-$$$,,6qiiiiiiaaaaaaaaaaaaaaaaaaaa",
"aaaaaaaaaaaaaaaaaaaaaaaiiiiiiiiiiiiiiiiiiaaaaaaaaaaaaaaaaaaaaaaa",
"aaaaaaaaaaaaaaaaaaaaaaaaaaaiiiiiiiiiiaaaaaaaaaaaaaaaaaaaaaaaaaaa",
"aaaaaaaaaaaaaaaaaaaaaaaaaaaaaaaaaaaaaaaaaaaaaaaaaaaaaaaaaaaaaaaa"
};
