/* XPM */
static char *_54f407051504cc4b2249845e7992247[] = {
/* columns rows colors chars-per-pixel */
"128 128 39 1 ",
"  c black",
". c #020100",
"X c #110501",
"o c #210902",
"O c #300C03",
"+ c #3E0F04",
"@ c #3F1004",
"# c #401004",
"$ c #4F1404",
"% c #4F1405",
"& c #5E1805",
"* c #5F1806",
"= c #6D1B06",
"- c #6D1B07",
"; c #6E1B07",
": c #7D1F07",
"> c #7D1F08",
", c #7E1F08",
"< c #8C2308",
"1 c #8D2308",
"2 c #9B2709",
"3 c #9C2609",
"4 c #9C2709",
"5 c #AA2A0A",
"6 c #AB2A0A",
"7 c #AC2A0A",
"8 c #BA2E0B",
"9 c #BB2E0B",
"0 c #C9320B",
"q c #CA320C",
"w c #CB320C",
"e c #DA350D",
"r c #D8360C",
"t c #DA360D",
"y c #E8390D",
"u c #EA390E",
"i c #F73D0E",
"p c #F93D0F",
"a c None",
/* pixels */
"aaaaaaaaaaaaaaaaaaaaaaaaaaaaaaaaaaaaaaaaaaaaaaaaaaaaaaaaaaaaaaaaaaaaaaaaaaaaaaaaaaaaaaaaaaaaaaaaaaaaaaaaaaaaaaaaaaaaaaaaaaaaaaaa",
"aaaaaaaaaaaaaaaaaaaaaaaaaaaaaaaaaaaaaaaaaaaaaaaaaaaaaaaaaaaaaaaaaaaaaaaaaaaaaaaaaaaaaaaaaaaaaaaaaaaaaaaaaaaaaaaaaaaaaaaaaaaaaaaa",
"aaaaaaaaaaaaaaaaaaaaaaaaaaaaaaaaaaaaaaaaaaaaaaaaaaaaaaaaaaaaaaaaaaaaaaaaaaaaaaaaaaaaaaaaaaaaaaaaaaaaaaaaaaaaaaaaaaaaaaaaaaaaaaaa",
"aaaaaaaaaaaaaaaaaaaaaaaaaaaaaaaaaaaaaaaaaaaaaaaaaaaaaaaaaaaaaaaaaaaaaaaaaaaaaaaaaaaaaaaaaaaaaaaaaaaaaaaaaaaaaaaaaaaaaaaaaaaaaaaa",
"aaaaaaaaaaaaaaaaaaaaaaaaaaaaaaaaaaaaaaaaaaaaaaaaaaaaaaaiiiiiiiiiiiiiiiiiiaaaaaaaaaaaaaaaaaaaaaaaaaaaaaaaaaaaaaaaaaaaaaaaaaaaaaaa",
"aaaaaaaaaaaaaaaaaaaaaaaaaaaaaaaaaaaaaaaaaaaaaaaaaaiiiiiiiiiiiiiiiiiiiiiiiiiiiiaaaaaaaaaaaaaaaaaaaaaaaaaaaaaaaaaaaaaaaaaaaaaaaaaa",
"aaaaaaaaaaaaaaaaaaaaaaaaaaaaaaaaaaaaaaaaaaaaaaiiiiiiiiiiiiiiiiiiiiiiiiiiiiiiiiiiiiaaaaaaaaaaaaaaaaaaaaaaaaaaaaaaaaaaaaaaaaaaaaaa",
"aaaaaaaaaaaaaaaaaaaaaaaaaaaaaaaaaaaaaaaaaaaiiiiiiiiiiiiiiiiiiiiiiiiiiiiiiiiiiiiiiiiiiaaaaaaaaaaaaaaaaaaaaaaaaaaaaaaaaaaaaaaaaaaa",
"aaaaaaaaaaaaaaaaaaaaaaaaaaaaaaaaaaaaaaaaaiiiiiiiiiiiii05:=@@o......X@@&:28iiiiiiiiiiiiiiaaaaaaaaaaaaaaaaaaaaaaaaaaaaaaaaaaaaaaaa",
"aaaaaaaaaaaaaaaaaaaaaaaaaaaaaaaaaaaaaaiiiiiiiiipiy5=@......................O&2tiiiiiiiiiiiaaaaaaaaaaaaaaaaaaaaaaaaaaaaaaaaaaaaaa",
"aaaaaaaaaaaaaaaaaaaaaaaaaaaaaaaaaaaaiiiiiiiiiiq<O..............................o=8iiiiiiiiiiaaaaaaaaaaaaaaaaaaaaaaaaaaaaaaaaaaaa",
"aaaaaaaaaaaaaaaaaaaaaaaaaaaaaaaaaaiiiiiiiiir<O....................................o=0iiiiiiiiiaaaaaaaaaaaaaaaaaaaaaaaaaaaaaaaaaa",
"aaaaaaaaaaaaaaaaaaaaaaaaaaaaaaaaaiiiiiiii8&..........................................O2iiiiiiiiaaaaaaaaaaaaaaaaaaaaaaaaaaaaaaaaa",
"aaaaaaaaaaaaaaaaaaaaaaaaaaaaaaaiiiiiiii2@..............................................o:yiiiiiiiaaaaaaaaaaaaaaaaaaaaaaaaaaaaaaa",
"aaaaaaaaaaaaaaaaaaaaaaaaaaaaaaiiiiiii8o..................................................X<iiiiiiiiaaaaaaaaaaaaaaaaaaaaaaaaaaaaa",
"aaaaaaaaaaaaaaaaaaaaaaaaaaaaiiiiiii0@......................................................o5iiiiiiiaaaaaaaaaaaaaaaaaaaaaaaaaaaa",
"aaaaaaaaaaaaaaaaaaaaaaaaaaaiiiiipy=..........................................................@riiiiiiaaaaaaaaaaaaaaaaaaaaaaaaaaa",
"aaaaaaaaaaaaaaaaaaaaaaaaaaiiiiii9o............................................................X<iiiiiiiaaaaaaaaaaaaaaaaaaaaaaaaa",
"aaaaaaaaaaaaaaaaaaaaaaaaaiiiiiy=................................................................@tiiiiiiaaaaaaaaaaaaaaaaaaaaaaaa",
"aaaaaaaaaaaaaaaaaaaaaaaiiiiii0O..................................................................X5iiiiiiaaaaaaaaaaaaaaaaaaaaaaa",
"aaaaaaaaaaaaaaaaaaaaaaiiiiii5X.....................................................................:iiiiiiaaaaaaaaaaaaaaaaaaaaaa",
"aaaaaaaaaaaaaaaaaaaaaiiiiii<........................................................................&yiiiiiaaaaaaaaaaaaaaaaaaaaa",
"aaaaaaaaaaaaaaaaaaaaiiiiii&..........................................................................Oyiiiiiaaaaaaaaaaaaaaaaaaaa",
"aaaaaaaaaaaaaaaaaaaiiiiii&............................................................................Oyiiiiiaaaaaaaaaaaaaaaaaaa",
"aaaaaaaaaaaaaaaaaaiiiiii&..............................................................................Oyiiiiiaaaaaaaaaaaaaaaaaa",
"aaaaaaaaaaaaaaaaaaiiiii&................................................................................Oyiiiiiaaaaaaaaaaaaaaaaa",
"aaaaaaaaaaaaaaaaaiiiii&..................................................................................Oyiiiiaaaaaaaaaaaaaaaaa",
"aaaaaaaaaaaaaaaaiiiii:....................................................................................Oiiiiiaaaaaaaaaaaaaaaa",
"aaaaaaaaaaaaaaaiiiii2......................................................................................&iiiiiaaaaaaaaaaaaaaa",
"aaaaaaaaaaaaaaaiiii0X.......................................................................................<iiiiiaaaaaaaaaaaaaa",
"aaaaaaaaaaaaaaiiiiyo.........................................................................................0iiiiaaaaaaaaaaaaaa",
"aaaaaaaaaaaaaiiiii$..........................................................................................oyiiiiaaaaaaaaaaaaa",
"aaaaaaaaaaaaaiiip<............................................................................................$iiiiiaaaaaaaaaaaa",
"aaaaaaaaaaaaiiiitX.............................................................................................5iiiiaaaaaaaaaaaa",
"aaaaaaaaaaaiiiii#..............................................................................................Xyiiiiaaaaaaaaaaa",
"aaaaaaaaaaaiiii5................................................................................................=iiiiaaaaaaaaaaa",
"aaaaaaaaaaiiiiio.................................................................................................0iiiiaaaaaaaaaa",
"aaaaaaaaaaiiii:..................................................................................................@iiiiiaaaaaaaaa",
"aaaaaaaaaiiiiyX...................................................................................................8iiiiaaaaaaaaa",
"aaaaaaaaaiiii:....................................................................................................@iiiiaaaaaaaaa",
"aaaaaaaaiiiiyX.....................................................................................................8iiiiaaaaaaaa",
"aaaaaaaaiiii<......................................................................................................@iiiiaaaaaaaa",
"aaaaaaaaiiiio.......................................................................................................tiiiiaaaaaaa",
"aaaaaaaiiii5........................................................................................................=iiiiaaaaaaa",
"aaaaaaaiiii$........................................................................................................Xiiiiaaaaaaa",
"aaaaaaaiiiy..........................................................................................................5iiiiaaaaaa",
"aaaaaaiiii2..........................................................................................................$iiiiaaaaaa",
"aaaaaaiiii$...........................................................................................................iiiiaaaaaa",
"aaaaaaiiiy............................................................................................................5iiiiaaaaa",
"aaaaaiiii5............................................................................................................&iiiiaaaaa",
"aaaaaiiii&............................................................................................................oiiiiaaaaa",
"aaaaaiiiio.............................................................................................................riiiaaaaa",
"aaaaaiiiy...............<uppwO.......................<uu9wtX...............otppt9999988899999999ty94%..................5iiiiaaaa",
"aaaaiiii8...............uppppw......................%pppppp4...............#ppppppppppppppppppppppppptO................:iiiiaaaa",
"aaaaiiii:...............;ppppp,....................Xtppppppp#..............#ppppppppppppppppppppppppppyo...............@iiiiaaaa",
"aaaaiiii$................9pppppO...................<pppppppptX.............#ppppp9999988999999999pppppp7...............Xiiiiaaaa",
"aaaaiiii@................oypppp9..................#pppppppppp1.............#pppp+.................-ppppp................iiiiaaaa",
"aaaaiiii..................;ppppp=.................wppppwOppppp#............#pppp+..................5pppp#...............8iiiaaaa",
"aaaaiiii...................9ppppyX...............,pppppO.,ppppt............#pppp+..................>pppp#...............8iiiiaaa",
"aaaaiii0...................oypppp7..............oupppp,..Xtpppp,...........#pppp+..................>pppp#...............<iiiiaaa",
"aaaaiii8....................;ppppp%.............9ppppt....#pppppO..........#pppp+..................2pppp#...............:iiiiaaa",
"aaaiiii8.....................9ppppuX...........*ppppp#.....7ppppw..........#pppp+.................+pppppX...............:iiiiaaa",
"aaaiiii8.....................oppppp4..........Xupppp1......Xupppp,.........#ppppt8888889888888888qppppp5................:iiiiaaa",
"aaaiiii8......................,ppppp#.........7pppptX.......;pppppO........#pppppppppppppppppppppppppppO................&iiiiaaa",
"aaaiiii8.......................wppppw........#ppppp#.........8pppp9........#pppppppppppppppppppppppppu*.................#piiiaaa",
"aaaiiii8.......................Oppppp,......Xtpppp4..........Oppppp;.......#pppppppppppppppppppppppw;X..................=iiiiaaa",
"aaaiiii8........................,pppppo.....,ppppyX...........,ppppyo......#pppp,............tpppp4.....................,iiiiaaa",
"aaaiiii8.........................wpppp9....Oppppp%.............tpppp9......#pppp,............*pppppo....................,iiiiaaa",
"aaaaiii8.........................Oppppp;...wpppp7..............@ppppp%.....#pppp,.............wpppp7....................:iiiiaaa",
"aaaaiii0..........................,ppppuo.;ppppuX...............4ppppuX....#pppp,.............#ppppp#...................<iiiiaaa",
"aaaaiiii...........................wpppp9oupppp%................Xupppp7....#pppp,..............9pppp9...................8iiiiaaa",
"aaaaiiii...........................Opppppupppp7..................%ppppp%...#pppp,..............#ppppp#..................8iiiaaaa",
"aaaaiiii@...........................<ppppppppuX...................7ppppuX..#pppp,...............9pppp9..................iiiiaaaa",
"aaaaiiii&...........................Xtppppppp%....................Xupppp7..#pppp,...............oppppp#................Xiiiiaaaa",
"aaaaiiii:............................#pppppp7......................;ppppp%.#pppp,................4pppp9................@iiiiaaaa",
"aaaaiiii8.............................1ppppyo.......................wpppptX#pppp,................oppppp#...............:iiiiaaaa",
"aaaaaiiiy.............................X7tp9*........................O9tw9wOO9999#.................;w9ww*...............5iiiiaaaa",
"aaaaaiiiio.............................................................................................................tiiiaaaaa",
"aaaaaiiii&............................................................................................................oiiiiaaaaa",
"aaaaaiiip5............................................................................................................&iiiiaaaaa",
"aaaaaaiiiy............................................................................................................5iiiiaaaaa",
"aaaaaaiiii$...........................................................................................................iiiiaaaaaa",
"aaaaaaiiii2..........................................................................................................$iiiiaaaaaa",
"aaaaaaaiiiy..........................................................................................................5iiiiaaaaaa",
"aaaaaaaiiii$........................................................................................................Xiiiiaaaaaaa",
"aaaaaaaiiii5........................................................................................................=iiiiaaaaaaa",
"aaaaaaaaiiiio.......................................................................................................riiiiaaaaaaa",
"aaaaaaaaiiii<......................................................................................................@iiiiaaaaaaaa",
"aaaaaaaaiiiiyX.....................................................................................................8iiiiaaaaaaaa",
"aaaaaaaaaiiii:....................................................................................................@iiiiaaaaaaaaa",
"aaaaaaaaaiiiiyX...................................................................................................8iiiiaaaaaaaaa",
"aaaaaaaaaaiiii:..................................................................................................@iiiiiaaaaaaaaa",
"aaaaaaaaaaiiiiio.................................................................................................0iiiiaaaaaaaaaa",
"aaaaaaaaaaaiiii5................................................................................................=iiiiaaaaaaaaaaa",
"aaaaaaaaaaaiiiii#..............................................................................................Xyiiiiaaaaaaaaaaa",
"aaaaaaaaaaaaiiiitX.............................................................................................5iiiiaaaaaaaaaaaa",
"aaaaaaaaaaaaaiiii<............................................................................................$iiiiiaaaaaaaaaaaa",
"aaaaaaaaaaaaaiiiii$..........................................................................................oyiiiiaaaaaaaaaaaaa",
"aaaaaaaaaaaaaaiiiiyo.........................................................................................0iiiiaaaaaaaaaaaaaa",
"aaaaaaaaaaaaaaaiiii0X.......................................................................................<iiiiiaaaaaaaaaaaaaa",
"aaaaaaaaaaaaaaaiiiii2......................................................................................&iiiiiaaaaaaaaaaaaaaa",
"aaaaaaaaaaaaaaaaiiiii:....................................................................................Oiiiiiaaaaaaaaaaaaaaaa",
"aaaaaaaaaaaaaaaaaiiiii&..................................................................................Oyiiiiaaaaaaaaaaaaaaaaa",
"aaaaaaaaaaaaaaaaaaiiiii&................................................................................Oyiiiiiaaaaaaaaaaaaaaaaa",
"aaaaaaaaaaaaaaaaaaiiiiii&..............................................................................Oyiiiiiaaaaaaaaaaaaaaaaaa",
"aaaaaaaaaaaaaaaaaaaiiiiii&............................................................................Oyiiiiiaaaaaaaaaaaaaaaaaaa",
"aaaaaaaaaaaaaaaaaaaaiiiiii&..........................................................................Oyiiiiiaaaaaaaaaaaaaaaaaaaa",
"aaaaaaaaaaaaaaaaaaaaaiiiiii<........................................................................&yiiiiiaaaaaaaaaaaaaaaaaaaaa",
"aaaaaaaaaaaaaaaaaaaaaaiiiiii5X.....................................................................:iiiiiiaaaaaaaaaaaaaaaaaaaaaa",
"aaaaaaaaaaaaaaaaaaaaaaaiiiiii0O..................................................................X5iiiiiiaaaaaaaaaaaaaaaaaaaaaaa",
"aaaaaaaaaaaaaaaaaaaaaaaaaiiiiiy=................................................................@tiiiiiiaaaaaaaaaaaaaaaaaaaaaaaa",
"aaaaaaaaaaaaaaaaaaaaaaaaaaiiiiii8o............................................................X<iiiiiiiaaaaaaaaaaaaaaaaaaaaaaaaa",
"aaaaaaaaaaaaaaaaaaaaaaaaaaaiiiiiiy=..........................................................@tiiiiiiaaaaaaaaaaaaaaaaaaaaaaaaaaa",
"aaaaaaaaaaaaaaaaaaaaaaaaaaaaiiiiiii0@......................................................o5iiiiiiiaaaaaaaaaaaaaaaaaaaaaaaaaaaa",
"aaaaaaaaaaaaaaaaaaaaaaaaaaaaaaiiiiiii8o..................................................X<iiiiiiiiaaaaaaaaaaaaaaaaaaaaaaaaaaaaa",
"aaaaaaaaaaaaaaaaaaaaaaaaaaaaaaaiiiiiiii2@..............................................o:yiiiiiiiaaaaaaaaaaaaaaaaaaaaaaaaaaaaaaa",
"aaaaaaaaaaaaaaaaaaaaaaaaaaaaaaaaaiiiiiiii8&..........................................O2iiiiiiiiaaaaaaaaaaaaaaaaaaaaaaaaaaaaaaaaa",
"aaaaaaaaaaaaaaaaaaaaaaaaaaaaaaaaaaiiiiiiiiit<O....................................o=0iiiiiiiiiaaaaaaaaaaaaaaaaaaaaaaaaaaaaaaaaaa",
"aaaaaaaaaaaaaaaaaaaaaaaaaaaaaaaaaaaaiiiiiiiiiir<O..............................o=8iiiiiiiiiiaaaaaaaaaaaaaaaaaaaaaaaaaaaaaaaaaaaa",
"aaaaaaaaaaaaaaaaaaaaaaaaaaaaaaaaaaaaaaiiiiiiiiiiiy5=@......................O&2riiiiiiiiiiiaaaaaaaaaaaaaaaaaaaaaaaaaaaaaaaaaaaaaa",
"aaaaaaaaaaaaaaaaaaaaaaaaaaaaaaaaaaaaaaaaaiiiiiiiiiiiii05:=@@o......X@@&:28iiiiiiiiiiiiiiaaaaaaaaaaaaaaaaaaaaaaaaaaaaaaaaaaaaaaaa",
"aaaaaaaaaaaaaaaaaaaaaaaaaaaaaaaaaaaaaaaaaaaiiiiiiiiiiiiiiiiiiiiiiiiiiiiiiiiiiiiiiiiiiaaaaaaaaaaaaaaaaaaaaaaaaaaaaaaaaaaaaaaaaaaa",
"aaaaaaaaaaaaaaaaaaaaaaaaaaaaaaaaaaaaaaaaaaaaaaiiiiiiiiiiiiiiiiiiiiiiiiiiiiiiiiiiiiaaaaaaaaaaaaaaaaaaaaaaaaaaaaaaaaaaaaaaaaaaaaaa",
"aaaaaaaaaaaaaaaaaaaaaaaaaaaaaaaaaaaaaaaaaaaaaaaaaaiiiiiiiiiiiiiiiiiiiiiiiiiiiiaaaaaaaaaaaaaaaaaaaaaaaaaaaaaaaaaaaaaaaaaaaaaaaaaa",
"aaaaaaaaaaaaaaaaaaaaaaaaaaaaaaaaaaaaaaaaaaaaaaaaaaaaaaaiiiiiiiiiiiiiiiiiiaaaaaaaaaaaaaaaaaaaaaaaaaaaaaaaaaaaaaaaaaaaaaaaaaaaaaaa",
"aaaaaaaaaaaaaaaaaaaaaaaaaaaaaaaaaaaaaaaaaaaaaaaaaaaaaaaaaaaaaaaaaaaaaaaaaaaaaaaaaaaaaaaaaaaaaaaaaaaaaaaaaaaaaaaaaaaaaaaaaaaaaaaa",
"aaaaaaaaaaaaaaaaaaaaaaaaaaaaaaaaaaaaaaaaaaaaaaaaaaaaaaaaaaaaaaaaaaaaaaaaaaaaaaaaaaaaaaaaaaaaaaaaaaaaaaaaaaaaaaaaaaaaaaaaaaaaaaaa",
"aaaaaaaaaaaaaaaaaaaaaaaaaaaaaaaaaaaaaaaaaaaaaaaaaaaaaaaaaaaaaaaaaaaaaaaaaaaaaaaaaaaaaaaaaaaaaaaaaaaaaaaaaaaaaaaaaaaaaaaaaaaaaaaa"
};
