/* XPM */
static char *_e11094845564495937d64ad6ca2a04f[] = {
/* columns rows colors chars-per-pixel */
"16 16 33 1 ",
"  c #020100",
". c #110501",
"X c #210902",
"o c #300C03",
"O c #3E0F04",
"+ c #3F1004",
"@ c #401004",
"# c #4F1405",
"$ c #5E1805",
"% c #6D1B06",
"& c #6D1B07",
"* c #6E1B07",
"= c #7D1F07",
"- c #7D1F08",
"; c #7E1F08",
": c #8C2308",
"> c #9B2709",
", c #9C2709",
"< c #AA2A0A",
"1 c #AB2A0A",
"2 c #AC2A0A",
"3 c #BA2E0B",
"4 c #BB2E0B",
"5 c #C6310B",
"6 c #C9320B",
"7 c #CB320C",
"8 c #D4340C",
"9 c #DA360D",
"0 c #E6390D",
"q c #E7390D",
"w c #F73D0E",
"e c #F93D0F",
"r c None",
/* pixels */
"rrrrrrrrrrrrrrrr",
"rrrrrw6:-10wrrrr",
"rrrw1X     $0rrr",
"rrw%        X5rr",
"rr>          o0r",
"r0.           =r",
"r> o  .o X@@o Xe",
"r$ ,% ,eX-%O-+ 8",
"w@ .9#6+4-2:4X 4",
"r$  *eo 29- 9X 8",
"r>   o  .X  X.Xe",
"r0.           =r",
"rr1          owr",
"rrw>        o0rr",
"rrrw4X     %0rrr",
"rrrrrw6>=40wrrrr"
};
