<?xml version="1.0" encoding="utf-8"?>
<!-- Generator: Adobe Illustrator 22.0.1, SVG Export Plug-In . SVG Version: 6.00 Build 0)  -->
<svg version="1.1"
	 id="svg2" inkscape:version="0.48.2 r9819" sodipodi:docname="bitcoin-logo-noshadow.svg" xmlns:cc="http://creativecommons.org/ns#" xmlns:dc="http://purl.org/dc/elements/1.1/" xmlns:inkscape="http://www.inkscape.org/namespaces/inkscape" xmlns:rdf="http://www.w3.org/1999/02/22-rdf-syntax-ns#" xmlns:sodipodi="http://sodipodi.sourceforge.net/DTD/sodipodi-0.dtd" xmlns:svg="http://www.w3.org/2000/svg"
	 xmlns="http://www.w3.org/2000/svg" xmlns:xlink="http://www.w3.org/1999/xlink" x="0px" y="0px" viewBox="0 0 1024 1024"
	 style="enable-background:new 0 0 1024 1024;" xml:space="preserve">
<style type="text/css">
	.st0{fill:#020100;}
	.st1{fill:#F73D0E;}
	.st2{fill:#F93D0F;}
</style>
<g>
	<g>
		<path class="st0" d="M512,949.8c-59,0-116.5-11.2-170.3-34.4c-52.3-21.7-98.6-53.8-139-94.1s-71.7-86.7-94.1-139
			C85.4,628.5,74.2,571,74.2,512s11.2-116.5,34.4-170.3c21.7-52.3,53.8-98.6,94.1-139s86.7-71.7,139-94.1
			C395.5,85.4,453,74.2,512,74.2s116.5,11.2,170.3,34.4c52.3,21.7,98.6,53.8,139,94.1s71.7,86.7,94.1,139
			c23.2,53.8,34.4,111.3,34.4,170.3s-11.2,116.5-34.4,170.3c-21.7,52.3-53.8,98.6-94.1,139s-86.7,71.7-139,94.1
			C628.5,937.9,571,949.8,512,949.8z"/>
		<path class="st1" d="M512,89.1c56.8,0,112.8,11.2,164.4,32.9c50.1,21.7,95.6,51.6,134.5,90.4s69.5,84.4,90.4,134.5
			c22.4,52.3,32.9,107.6,32.9,164.4s-11.2,112.8-32.9,164.4c-21.7,50.1-51.6,95.6-90.4,134.5s-84.4,69.5-134.5,90.4
			c-52.3,22.4-107.6,32.9-164.4,32.9s-112.8-11.2-164.4-32.9c-50.1-21.7-95.6-51.6-134.5-90.4s-69.5-84.4-90.4-134.5
			C100.3,623.3,89.9,568,89.9,511.3s11.2-112.8,32.9-164.4c21.7-50.1,51.6-95.6,90.4-134.5s84.4-69.5,134.5-90.4
			C399.9,100.3,455.2,89.1,512,89.1 M512,60C262.5,60,60,262.5,60,512s202.5,452,452,452s452-202.5,452-452S761.5,60,512,60L512,60z
			"/>
	</g>
	<g>
		<path class="st2" d="M219.9,420.9c7.5,0,14.2,0,21.7,0c2.2,0,4.5,0,6,1.5c2.2,2.2,4.5,5.2,6,7.5c8.2,12.7,17.2,26.1,25.4,38.8
			c9.7,14.2,18.7,29.1,27.6,44.1c7.5,12,15.7,23.9,23.2,35.9c3.7,6,6.7,11.2,12.7,15.7c20.2-31.4,39.6-63.5,60.5-94.9
			c9-14.2,17.9-27.6,26.1-41.8c1.5-2.2,3-5.2,5.2-6.7c2.2-0.7,4.5-0.7,7.5-0.7c9.7,0,19.4,0,29.1,0c10.5,17.9,22.4,34.4,32.9,52.3
			c13.4,20.9,27.6,41.1,40.3,62c9,14.2,17.9,27.6,27.6,41.8c5.2,8.2,10.5,15.7,14.9,23.9c-0.7,0.7-1.5,2.2-2.2,3
			c-9.7,0-20.2,0-29.9,0c-5.2,0-8.2-5.2-10.5-9c-7.5-12.7-14.9-24.7-23.2-37.4c-18.7-29.9-37.4-59-56-88.9c-3-6-6.7-11.2-12-14.9
			c-11.2,17.9-23.2,35.1-35.1,53c-18.7,29.9-38.8,59-58.3,88.9c-2.2,3.7-5.2,8.2-9.7,8.2c-6,0-12,0-17.2,0c-2.2,0-4.5-1.5-6-3
			c-3-3-5.2-6.7-8.2-10.5c-11.2-17.9-23.2-35.9-35.1-53c-22.4-34.4-45.6-68.7-68-103.1c-1.5-2.2-3-4.5-2.2-6.7
			C214.7,423.8,216.9,420.1,219.9,420.9z"/>
		<path class="st2" d="M601.7,420.9c1.5,0,2.2,0,3.7,0c49.3,0,98.6,0,147.2,0c7.5,0,14.2-0.7,21.7,1.5c9.7,3,17.9,6,24.7,13.4
			c6,5.2,8.2,12.7,10.5,20.2c1.5,6.7,0.7,12.7,0.7,20.2c0.7,13.4-5.2,28.4-15.7,36.6c-7.5,6.7-18.7,6.7-27.6,12
			c2.2,5.2,4.5,10.5,7.5,15.7c9.7,18.7,19.4,36.6,28.4,55.3c1.5,3,1.5,5.2,0.7,8.2c-8.2,0.7-17.2,0-25.4,0c-2.2,0-6.7,0.7-8.2-1.5
			c-4.5-3.7-6.7-9.7-9-14.9c-4.5-9-9.7-17.2-13.4-26.1c-6-12.7-12.7-24.7-18.7-37.4c5.2,6.7,8.2,13.4,12,20.9
			c2.2,4.5,4.5,9,7.5,13.4c-2.2-6-6-11.2-9-17.2c-3-5.2-5.2-11.2-9-15.7c-2.2-3-6.7-3-10.5-3c-29.1,0-58.3,0-88.2,0
			c0,20.9,0,41.8,0,62c0,5.2,0,11.2,0,16.4l-1.5,1.5c-4.5,0.7-8.2,0-12.7,0c-6,0-12,0-17.9-0.7c0-56,0-112.1,0-168.1
			C600.2,429.8,599.4,424.6,601.7,420.9z"/>
		<path d="M644.2,447.7c35.9,0,71.7,0,106.8,0c7.5,0,15.7,1.5,20.2,7.5c3.7,6,3,14.9,3,21.7c0,6-3,11.2-8.2,14.2
			c-6,3.7-12,2.2-18.7,3c-35.9,0-71.7,0-106.8,0c-2.2,0-6,0-6.7-3c-0.7-3.7-0.7-7.5-0.7-11.2c0-9.7,0-20.2,0-29.9
			C637.5,448.5,640.5,447.7,644.2,447.7z"/>
	</g>
</g>
</svg>
